<?xml version="1.0" standalone="no"?>
<!DOCTYPE svg PUBLIC "-//W3C//DTD SVG 20010904//EN"
 "http://www.w3.org/TR/2001/REC-SVG-20010904/DTD/svg10.dtd">
<svg version="1.0" xmlns="http://www.w3.org/2000/svg"
 width="1948.000000pt" height="1948.000000pt" viewBox="0 0 1948.000000 1948.000000"
 preserveAspectRatio="xMidYMid meet">
<metadata>
Created by potrace 1.11, written by Peter Selinger 2001-2013
</metadata>
<g transform="translate(0.000000,1948.000000) scale(0.100000,-0.100000)"
fill="#000000" stroke="none">
<path d="M9358 19475 c-2 -2 -70 -6 -152 -10 -82 -4 -157 -8 -165 -10 -9 -1
-62 -6 -117 -9 -56 -4 -110 -8 -120 -10 -11 -2 -55 -7 -98 -11 -43 -4 -86 -8
-95 -10 -9 -1 -43 -6 -76 -9 -90 -11 -187 -24 -230 -32 -11 -2 -40 -7 -65 -10
-50 -6 -82 -11 -120 -19 -13 -2 -42 -7 -65 -11 -226 -33 -747 -154 -1075 -250
-960 -282 -1931 -746 -2760 -1318 -266 -184 -712 -527 -800 -616 -3 -3 -34
-30 -70 -60 -36 -30 -83 -71 -105 -91 -22 -20 -71 -65 -110 -100 -38 -35 -169
-163 -290 -284 -194 -194 -288 -293 -416 -439 -19 -22 -41 -47 -49 -55 -8 -9
-71 -84 -139 -166 -68 -83 -131 -159 -140 -170 -38 -46 -312 -416 -366 -495
-161 -236 -232 -345 -352 -545 -97 -162 -126 -213 -231 -405 -40 -72 -185
-365 -247 -495 -132 -280 -287 -666 -400 -1000 -75 -221 -188 -616 -240 -835
-34 -148 -86 -394 -100 -480 -3 -19 -12 -66 -20 -105 -7 -38 -16 -90 -19 -115
-3 -25 -12 -88 -20 -140 -8 -52 -18 -115 -21 -140 -3 -25 -7 -61 -10 -80 -8
-64 -14 -114 -20 -175 -4 -33 -8 -76 -10 -95 -2 -19 -7 -73 -10 -120 -4 -47
-8 -101 -10 -120 -26 -250 -25 -1195 0 -1399 2 -20 7 -74 10 -121 3 -47 7 -98
9 -115 2 -16 7 -61 10 -100 4 -38 9 -81 11 -95 2 -14 7 -50 10 -80 3 -30 7
-66 9 -80 3 -14 7 -47 11 -75 3 -27 8 -57 10 -65 2 -8 6 -35 9 -60 12 -89 46
-285 77 -435 12 -55 23 -111 25 -125 3 -14 11 -51 19 -83 8 -32 17 -73 20 -90
6 -34 89 -361 105 -412 5 -16 21 -70 36 -120 31 -109 132 -422 144 -450 5 -11
12 -31 16 -45 8 -29 129 -350 149 -395 7 -16 29 -70 49 -118 247 -601 621
-1276 1019 -1842 59 -84 249 -339 293 -394 60 -76 219 -270 267 -326 184 -215
282 -320 527 -565 179 -179 260 -256 404 -385 500 -448 1127 -896 1696 -1213
25 -13 50 -28 55 -32 19 -13 220 -118 400 -208 491 -246 1033 -459 1574 -618
64 -19 123 -36 131 -39 109 -28 418 -106 438 -110 15 -3 36 -7 47 -10 40 -9
302 -63 331 -68 16 -3 40 -8 54 -11 14 -3 39 -7 55 -10 17 -2 59 -9 95 -15 36
-6 83 -13 105 -16 22 -3 53 -8 70 -12 16 -3 45 -7 64 -9 19 -2 48 -5 65 -8 17
-3 58 -8 91 -11 33 -3 67 -8 75 -10 8 -2 51 -7 95 -11 44 -3 94 -8 110 -10 17
-2 66 -6 110 -9 44 -3 94 -7 110 -10 192 -26 1122 -26 1405 0 19 2 73 6 120 9
47 4 99 8 115 10 17 2 57 7 90 10 33 4 76 8 95 11 67 8 135 17 165 20 52 5
185 24 220 31 11 3 40 7 65 10 25 3 52 7 60 9 8 2 31 7 50 10 19 3 42 8 50 10
8 2 35 7 60 10 25 4 77 13 115 22 39 8 81 17 95 19 14 3 45 10 70 16 25 5 59
12 75 15 58 10 461 114 595 154 601 180 1077 367 1629 643 156 78 267 136 336
176 17 10 50 29 75 42 418 231 913 567 1334 906 324 261 811 717 1061 995 44
49 89 99 100 111 11 12 43 48 70 81 28 32 55 63 60 69 6 6 57 67 114 136 57
69 111 135 121 146 10 12 86 113 169 224 209 279 496 714 633 960 14 25 43 77
65 115 81 141 273 517 333 650 12 28 36 79 52 115 168 366 392 985 489 1350 5
19 11 42 14 50 18 65 89 349 101 405 40 187 93 445 98 485 6 43 10 68 21 128
3 15 8 46 11 68 2 23 6 50 8 60 2 11 7 44 11 74 4 30 9 62 10 70 1 8 6 44 10
80 4 36 9 72 10 81 2 9 6 52 10 95 4 43 9 86 10 95 2 8 6 55 10 105 3 49 8
107 10 129 26 272 26 1195 0 1404 -2 16 -7 69 -10 118 -3 48 -8 104 -10 123
-2 19 -7 64 -10 100 -4 36 -8 77 -11 91 -5 33 -10 78 -19 159 -4 36 -8 72 -10
80 -1 8 -6 35 -10 60 -3 25 -9 59 -12 75 -2 17 -6 41 -8 55 -43 299 -170 865
-267 1185 -133 442 -313 928 -460 1245 -12 25 -36 79 -55 120 -87 188 -249
504 -351 680 -30 52 -63 111 -74 130 -18 30 -72 121 -111 184 -178 291 -436
659 -651 931 -90 113 -93 117 -231 281 -63 74 -158 181 -265 298 -92 101 -489
496 -584 581 -49 44 -101 91 -115 104 -14 12 -46 39 -70 60 -24 20 -51 43 -60
52 -9 9 -81 69 -161 133 -80 65 -154 125 -165 134 -191 156 -715 515 -990 679
-483 288 -974 529 -1480 725 -522 203 -1129 379 -1625 472 -14 3 -50 10 -80
16 -30 6 -71 13 -90 16 -19 3 -42 7 -50 9 -8 3 -33 7 -55 10 -22 3 -65 10 -95
15 -30 5 -71 11 -90 14 -19 3 -44 7 -55 10 -11 2 -49 7 -85 11 -36 3 -78 8
-95 10 -16 2 -57 7 -90 11 -33 3 -67 8 -75 9 -8 2 -51 6 -95 10 -44 3 -96 8
-115 10 -19 2 -80 6 -135 10 -55 4 -120 9 -145 11 -52 5 -927 13 -932 9z
m1717 -1519 c105 -17 229 -40 351 -66 240 -50 288 -61 319 -70 54 -16 190 -52
210 -56 77 -14 467 -140 685 -222 402 -149 950 -404 1182 -549 21 -13 40 -23
42 -23 13 0 313 -186 492 -306 331 -219 608 -433 943 -729 259 -229 604 -587
847 -881 33 -39 72 -86 87 -105 86 -103 330 -438 434 -594 111 -167 258 -405
330 -535 17 -30 41 -73 54 -95 111 -197 302 -601 408 -865 108 -265 249 -676
296 -860 2 -8 13 -51 25 -95 12 -44 23 -87 25 -95 2 -8 13 -53 25 -100 12 -47
24 -96 27 -110 2 -14 13 -65 24 -115 32 -143 90 -469 104 -590 4 -27 8 -61 10
-75 7 -45 24 -194 30 -260 3 -36 8 -90 11 -120 37 -383 37 -1005 -1 -1410 -3
-36 -8 -90 -11 -120 -3 -30 -7 -71 -9 -90 -2 -19 -7 -60 -10 -90 -4 -30 -8
-66 -10 -80 -2 -14 -7 -45 -10 -70 -3 -25 -10 -70 -15 -100 -5 -30 -12 -73
-15 -95 -3 -22 -12 -76 -21 -120 -8 -44 -17 -96 -20 -115 -5 -27 -56 -265 -79
-360 -177 -757 -533 -1635 -930 -2292 -5 -9 -25 -43 -44 -75 -64 -107 -283
-437 -378 -566 -201 -275 -424 -546 -633 -770 -118 -127 -210 -221 -211 -216
-1 2 -3 1687 -4 3744 -1 2057 -3 3743 -4 3746 0 4 -536 7 -1190 7 -871 0
-1191 -4 -1193 -12 -3 -6 -4 -818 -4 -1804 l1 -1792 -80 -25 c-44 -13 -179
-53 -300 -89 -643 -189 -1218 -359 -1275 -377 -36 -12 -72 -22 -80 -24 -19 -4
-483 -141 -528 -156 -19 -6 -36 -8 -39 -5 -4 4 -8 10851 -4 10887 1 3 25 2 54
-2 28 -5 66 -11 82 -13z m-2527 -1775 l0 -1789 -37 -10 c-33 -9 -274 -80 -786
-233 -110 -33 -207 -62 -215 -64 -27 -7 -113 -33 -270 -79 -85 -26 -162 -48
-170 -51 -8 -2 -123 -36 -255 -75 -132 -40 -301 -90 -375 -112 -74 -22 -148
-44 -165 -49 -16 -5 -30 -9 -31 -9 0 0 -1 806 -1 1790 l0 1791 56 26 c47 21
145 63 346 147 177 75 512 191 740 257 55 16 114 34 132 39 18 6 40 13 50 15
10 2 74 18 143 35 69 18 136 34 150 36 14 3 50 11 80 19 30 8 66 16 80 19 14
2 86 16 160 31 74 14 153 28 175 31 22 3 56 8 75 13 19 4 54 8 76 9 l42 3 0
-1790z m-4693 -4313 l0 -3753 1193 -1 c884 -1 1192 1 1193 10 0 6 1 704 1
1552 l1 1541 111 33 c61 18 131 38 156 46 25 8 47 14 50 13 3 0 18 5 34 11 16
6 81 26 145 45 64 18 202 59 306 90 105 31 197 58 205 60 8 3 47 14 85 26 39
11 106 31 150 44 44 13 150 44 235 70 85 26 169 50 185 55 17 4 116 33 220 65
105 31 237 70 293 86 57 17 110 33 117 35 11 4 13 -911 12 -5193 -1 -3459 -5
-5198 -12 -5197 -5 1 -29 5 -53 8 -555 75 -1327 288 -1890 523 -347 144 -689
311 -980 479 -90 52 -173 100 -185 107 -12 7 -24 15 -27 18 -3 3 -16 12 -30
19 -45 23 -340 220 -469 313 -397 285 -682 528 -1041 887 -223 223 -260 262
-395 420 -49 58 -105 121 -122 140 -18 19 -33 38 -33 42 0 4 -10 17 -23 30
-28 28 -229 291 -312 407 -99 139 -211 308 -297 446 -44 71 -91 147 -104 167
-13 21 -24 40 -24 44 0 3 -8 18 -19 32 -10 15 -48 81 -83 147 -252 463 -434
880 -601 1375 -39 114 -120 381 -132 430 -2 8 -15 58 -28 110 -25 94 -101 428
-111 485 -3 17 -8 41 -11 55 -8 41 -39 228 -51 310 -3 19 -7 45 -9 56 -2 12
-7 48 -10 80 -4 33 -9 67 -11 76 -1 9 -5 48 -9 85 -3 37 -8 79 -10 93 -3 14
-8 63 -11 110 -3 47 -7 101 -10 120 -29 274 -24 1019 10 1365 3 28 8 82 12
120 3 39 8 78 9 87 2 9 7 48 10 85 4 37 8 75 10 83 2 8 7 35 10 60 9 67 12 82
39 245 33 189 36 207 41 225 2 8 7 29 10 45 5 28 10 52 19 93 17 68 28 121 32
142 3 14 12 48 20 76 8 28 16 61 19 72 10 52 100 361 144 497 113 343 194 551
353 905 33 73 190 388 238 475 157 289 353 603 550 880 27 39 55 78 62 89 7
10 18 24 23 30 6 6 46 58 89 116 44 58 83 107 86 110 3 3 21 25 40 50 19 25
37 47 40 50 3 3 30 34 60 70 105 125 475 530 484 530 1 0 1 -1689 1 -3752z
m9390 -8145 c0 -1357 -2 -1537 -15 -1541 -8 -3 -55 -24 -105 -47 -132 -62
-495 -205 -685 -270 -251 -86 -720 -218 -885 -249 -11 -2 -31 -7 -45 -10 -14
-3 -36 -8 -50 -10 -14 -3 -71 -14 -128 -25 -56 -11 -117 -23 -135 -26 -17 -3
-57 -10 -87 -15 -30 -5 -73 -12 -95 -15 -22 -3 -45 -8 -52 -10 -7 -2 -15 1
-19 7 -5 8 -10 2821 -5 3038 1 35 2 36 64 53 34 9 114 33 177 51 63 19 246 73
405 120 160 48 326 97 370 111 44 13 280 83 525 155 496 146 626 185 685 205
22 7 49 14 60 14 20 1 20 -5 20 -1536z"/>
</g>
</svg>
